<?xml version="1.0" encoding="UTF-8" standalone="no"?>
<svg width="205px" height="205px" viewBox="0 0 205 205" version="1.1" xmlns="http://www.w3.org/2000/svg" xmlns:xlink="http://www.w3.org/1999/xlink" xmlns:sketch="http://www.bohemiancoding.com/sketch/ns">
    <!-- Generator: Sketch 3.3 (11970) - http://www.bohemiancoding.com/sketch -->
    <title>noun_236743_cc</title>
    <desc>Created with Sketch.</desc>
    <defs></defs>
    <g id="Welcome" stroke="none" stroke-width="1" fill="none" fill-rule="evenodd" sketch:type="MSPage">
        <g id="Yay-Baloons" sketch:type="MSArtboardGroup" transform="translate(-618.000000, -516.000000)" fill="#D0021B">
            <g id="noun_236743_cc" sketch:type="MSLayerGroup" transform="translate(618.000000, 516.000000)">
                <g id="Group" sketch:type="MSShapeGroup">
                    <path d="M90.1060417,142.11625 L75.1154167,131.934583 C73.159375,130.610625 70.5114583,131.106042 69.1875,133.062083 L59.0058333,148.044167 C58.0320833,149.470625 58.015,151.349792 58.963125,152.793333 C59.7660417,154.014792 61.115625,154.72375 62.5335417,154.72375 C62.7983333,154.72375 63.0716667,154.698125 63.3364583,154.646875 L88.50875,149.837917 C90.2,149.513333 91.5325,148.197917 91.89125,146.506667 C92.2329167,144.823958 91.5325,143.081458 90.1060417,142.11625 L90.1060417,142.11625 Z" id="Shape"></path>
                    <path d="M89.3629167,18.0058333 C89.0639583,16.8185417 88.2695833,15.8191667 87.1847917,15.2554167 C75.3204167,9.148125 61.6452083,7.12375 48.6789583,9.609375 C32.9964583,12.6075 19.4066667,21.5335417 10.4379167,34.7389583 C1.460625,47.9529167 -1.82791667,63.8660417 1.17020833,79.5570833 C7.01270833,110.170417 44.6985417,140.108958 68.5554167,140.108958 C70.2808333,140.108958 71.9379167,139.955208 73.518125,139.65625 C76.1233333,139.152292 78.7883333,138.161458 81.6839583,136.615417 C82.7004167,136.06875 83.4520833,135.137708 83.768125,134.027292 C84.0841667,132.916875 83.9475,131.729583 83.3666667,130.730208 C81.9572917,128.253125 81.3764583,125.5625 81.6839583,122.931667 C82.0341667,119.890833 83.64,117.012292 86.176875,114.825625 C87.6716667,113.552917 88.09875,111.426042 87.2189583,109.675 C82.0170833,99.2797917 79.6254167,88.636875 78.848125,84.5454167 C74.6627083,62.6958333 77.0714583,41.538125 85.4679167,26.5047917 C86.2879167,25.0441667 87.2360417,23.6775 88.175625,22.3108333 L88.7479167,21.47375 C89.4397917,20.4572917 89.661875,19.2016667 89.3629167,18.0058333 L89.3629167,18.0058333 Z M53.4879167,34.7816667 C34.9866667,38.3179167 22.80625,56.246875 26.3339583,74.748125 C26.778125,77.0629167 25.2577083,79.3008333 22.9429167,79.745 C22.6695833,79.79625 22.39625,79.821875 22.1314583,79.821875 C20.1327083,79.821875 18.3389583,78.3954167 17.9460417,76.3539583 C13.53,53.2145833 28.75125,30.8097917 51.8820833,26.39375 C54.1285417,25.9752083 56.42625,27.4614583 56.8789583,29.7847917 C57.323125,32.108125 55.8027083,34.3460417 53.4879167,34.7816667 L53.4879167,34.7816667 Z" id="Shape"></path>
                    <path d="M115.944583,118.310625 C115.637083,117.225833 114.9025,116.294792 113.920208,115.748125 C112.937917,115.192917 111.759167,115.05625 110.665833,115.372292 L93.2322917,120.317917 C91.5752083,120.787708 90.35375,122.214167 90.1572917,123.931042 C89.9608333,125.647917 90.815,127.313542 92.3183333,128.159167 L114.688958,140.647083 C115.338125,141.005833 116.055625,141.185208 116.773125,141.185208 C117.712708,141.185208 118.652292,140.869167 119.421042,140.262708 C120.779167,139.195 121.36,137.409792 120.890208,135.752708 L115.944583,118.310625 L115.944583,118.310625 Z" id="Shape"></path>
                    <path d="M174.267083,7.59354167 C165.366667,2.62229167 155.313125,0 145.174167,0 C123.495417,0 103.47375,11.7447917 92.9247917,30.6645833 C85.6045833,43.7845833 83.4777083,63.3279167 87.2360417,82.9310417 C90.96875,102.354792 99.3822917,117.41375 109.751875,123.196458 C114.330208,125.750417 120.189792,127.04875 127.168333,127.04875 C150.794583,127.04875 184.628125,111.733542 197.346667,88.944375 C213.405,60.1504167 203.0525,23.6604167 174.267083,7.59354167 L174.267083,7.59354167 Z M167.5875,28.315625 C166.425833,30.3827083 163.820625,31.0916667 161.770625,29.9641667 C153.80125,25.5139583 144.57625,24.44625 135.803958,26.931875 C127.023125,29.4260417 119.737083,35.183125 115.295417,43.1525 C114.509583,44.5533333 113.0575,45.3391667 111.562708,45.3391667 C110.85375,45.3391667 110.13625,45.1597917 109.478542,44.8010417 C107.428542,43.6564583 106.685417,41.05125 107.838542,38.9927083 C113.390625,29.033125 122.504583,21.8325 133.480625,18.7147917 C144.439583,15.605625 155.979375,16.9466667 165.9475,22.5072917 C167.9975,23.6604167 168.740625,26.2570833 167.5875,28.315625 L167.5875,28.315625 Z" id="Shape"></path>
                    <path d="M89.6191667,205 C87.663125,205 85.94625,203.6675 85.4764583,201.762708 L72.6639583,150.512708 C72.1002083,148.223542 73.4839583,145.90875 75.773125,145.336458 C78.0366667,144.73 80.3770833,146.147917 80.949375,148.445625 L89.6191667,183.124792 L102.559792,131.362292 C103.123542,129.064583 105.412708,127.672292 107.736042,128.253125 C110.03375,128.825417 111.4175,131.140208 110.845208,133.429375 L93.761875,201.762708 C93.2920833,203.6675 91.58375,205 89.6191667,205 L89.6191667,205 Z" id="Shape"></path>
                </g>
            </g>
        </g>
    </g>
</svg>